<?xml version="1.0" encoding="iso-8859-1"?>
<!-- Generator: Adobe Illustrator 19.0.0, SVG Export Plug-In . SVG Version: 6.00 Build 0)  -->
<svg version="1.1" id="Capa_1" xmlns="http://www.w3.org/2000/svg" xmlns:xlink="http://www.w3.org/1999/xlink" x="0px" y="0px"
	 viewBox="0 0 511.908 511.908" style="enable-background:new 0 0 511.908 511.908;" xml:space="preserve">
<g>
	<path style="fill:#E6E9ED;" d="M506.659,344.235c-39.993,47.991-159.972,48.226-495.911,47.991c-4.397,0-7.998-3.522-7.998-7.998
		v-23.996c211.563,0.156,340.657,0.078,417.206-11.92c37.915-5.999,62.949-14.88,78.704-28.073c3.039-2.562,5.679-5.202,7.999-7.998
		V344.235z"/>
	<path style="fill:#E6E9ED;" d="M498.66,304.242v15.997c-15.755,13.193-40.789,22.074-78.704,28.073v-0.164l-11.037-80.063
		C461.143,277.286,498.66,281.683,498.66,304.242z"/>
	<path style="fill:#E6E9ED;" d="M273.904,263.047c-3.68-2.398-4.804-7.358-2.406-11.115l12.162-18.958
		c4.96,2.242,9.998,4.397,15.036,6.319l-13.755,21.277C282.543,264.328,277.661,265.367,273.904,263.047z"/>
	<path style="fill:#E6E9ED;" d="M334.768,251.611l-13.436,20.957c-2.397,3.68-7.358,4.796-11.115,2.398
		c-3.679-2.398-4.804-7.358-2.405-11.037v-0.078l11.123-17.2C324.215,248.409,329.574,250.088,334.768,251.611z"/>
	<path style="fill:#E6E9ED;" d="M182.64,193.622c-3.844,2.155-8.718,0.875-10.881-2.961c-2.242-3.921-0.883-8.795,2.96-10.959
		l17.841-10.076c3.835,4.077,7.834,7.999,11.912,11.678L182.64,193.622z"/>
	<path style="fill:#E6E9ED;" d="M152.324,145.872l16.317-4.882c3.359,4.718,6.796,9.194,10.475,13.513l-22.152,6.726
		c-4.241,1.273-8.717-1.125-9.998-5.358c-1.281-4.242,1.117-8.64,5.358-9.92L152.324,145.872L152.324,145.872z"/>
	<path style="fill:#E6E9ED;" d="M213.431,221.538c-3.358,2.953-8.397,2.632-11.279-0.726c-2.96-3.273-2.641-8.319,0.719-11.271
		l17.044-15.044c4.319,3.523,8.717,6.725,13.114,9.842L213.431,221.538z"/>
	<path style="fill:#E6E9ED;" d="M249.666,243.449c-2.718,3.523-7.756,4.164-11.279,1.445c-3.437-2.726-4.077-7.764-1.358-11.201
		l13.755-17.833c4.64,2.796,9.357,5.437,14.076,7.913L249.666,243.449z"/>
	<path style="fill:#E6E9ED;" d="M350.93,285.527c-4-1.922-5.601-6.64-3.766-10.639h0.086l8.476-17.677
		c5.358,1.359,10.717,2.554,15.919,3.679l-10.076,20.871l0.078,0.086C359.725,285.762,354.929,287.44,350.93,285.527z"/>
</g>
<path style="fill:#ED5565;" d="M347.164,274.889c-1.835,3.999-0.234,8.717,3.766,10.639c3.999,1.913,8.795,0.234,10.717-3.68
	l-0.078-0.086l10.076-20.871c13.037,2.797,25.511,5.116,37.274,7.194l11.037,80.063v0.164
	c-76.549,11.998-205.643,12.076-417.206,11.92v-7.998c0-104.544,31.994-55.99,7.998-231.959c89.023,17.833,143.975,0,143.975,0
	c4.397,7.28,9.037,14.154,13.919,20.715l-16.317,4.882v0.078c-4.241,1.281-6.64,5.679-5.358,9.92
	c1.281,4.233,5.757,6.631,9.998,5.358l22.152-6.726c4.319,5.28,8.804,10.318,13.443,15.122L174.719,179.7
	c-3.843,2.164-5.202,7.038-2.96,10.959c2.163,3.835,7.037,5.116,10.881,2.961l21.832-12.318c5.038,4.718,10.24,9.115,15.442,13.193
	l-17.044,15.044c-3.359,2.952-3.679,7.998-0.719,11.271c2.882,3.358,7.921,3.679,11.279,0.726l19.598-17.2
	c5.835,4.077,11.756,7.92,17.755,11.521l-13.755,17.833c-2.719,3.438-2.078,8.476,1.358,11.201
	c3.523,2.719,8.562,2.078,11.279-1.445l15.193-19.676c6.24,3.281,12.481,6.397,18.801,9.202l-12.162,18.958
	c-2.397,3.757-1.273,8.717,2.406,11.115c3.757,2.32,8.639,1.281,11.037-2.477l13.755-21.277c6.718,2.719,13.521,5.116,20.239,7.358
	l-11.123,17.2v0.078c-2.398,3.679-1.273,8.639,2.405,11.037c3.757,2.397,8.718,1.281,11.115-2.398l13.436-20.957
	c7.123,2.078,14.075,3.921,20.957,5.601l-8.476,17.677h-0.084V274.889z"/>
<g style="opacity:0.2;">
	<path d="M408.919,268.085c-11.764-2.078-24.237-4.397-37.274-7.194c-5.202-1.125-10.561-2.319-15.919-3.679
		c-6.882-1.68-13.834-3.523-20.957-5.601c-5.194-1.523-10.554-3.203-15.833-4.96c-6.718-2.242-13.521-4.64-20.239-7.358
		c-5.038-1.921-10.076-4.077-15.036-6.319c-6.319-2.804-12.561-5.921-18.801-9.202c-4.719-2.476-9.437-5.116-14.076-7.913
		c-5.999-3.601-11.92-7.444-17.755-11.521c-4.397-3.117-8.795-6.319-13.114-9.842c-5.202-4.078-10.404-8.475-15.442-13.193
		c-4.078-3.679-8.077-7.601-11.912-11.678c-4.64-4.804-9.124-9.842-13.443-15.122c-3.679-4.319-7.115-8.795-10.475-13.513
		c-4.882-6.562-9.521-13.435-13.919-20.715l-11.201,2.766c4.397,7.28,12.24,19.387,17.122,25.948
		c3.358,4.718,6.795,9.193,10.475,13.513c4.319,5.28,8.803,10.318,13.442,15.123c3.836,4.077,7.835,7.998,11.912,11.677
		c5.038,4.718,10.24,9.116,15.442,13.193c4.319,3.523,8.718,6.726,13.115,9.842c5.835,4.078,11.756,7.921,17.754,11.521
		c4.641,2.796,9.358,5.437,14.076,7.913c6.241,3.28,12.482,6.397,18.802,9.201c4.959,2.242,9.998,4.397,15.036,6.319
		c6.718,2.718,13.521,5.116,20.238,7.358c5.28,1.757,10.639,3.437,15.833,4.959c7.124,2.078,14.076,3.922,20.957,5.602
		c5.358,1.358,10.717,2.554,15.919,3.679c13.037,2.796,25.511,5.116,37.274,7.194c52.226,9.201,89.742,13.599,89.742,36.157v13.739
		c2.866-1.828,5.585-3.718,7.998-5.741v-15.997C498.66,281.683,461.143,277.286,408.919,268.085z"/>
</g>
<path style="fill:#FFFFFF;" d="M18.747,392.226c-4.397,0-7.999-3.522-7.999-7.998V360.24c-2.671-0.008-5.296-0.008-7.998-0.008
	v23.996c0,4.476,3.601,7.998,7.998,7.998c22.121,0.016,43.25,0.023,63.536,0.023C56.435,392.25,37.985,392.242,18.747,392.226z"/>
<path style="fill:#FFCE54;" d="M135.265,264.789c0,15.458-12.536,27.994-27.994,27.994c-15.459,0-27.995-12.536-27.995-27.994
	c0-15.458,12.536-27.995,27.995-27.995C122.728,236.794,135.265,249.33,135.265,264.789z"/>
<g style="opacity:0.5;">
	<path style="fill:#FFFFFF;" d="M87.273,264.789c0-14.092,10.451-25.637,23.996-27.589c-1.32-0.195-2.633-0.406-3.999-0.406
		c-15.459,0-27.995,12.537-27.995,27.995s12.536,27.994,27.995,27.994c1.366,0,2.679-0.211,3.999-0.406
		C97.725,290.425,87.273,278.88,87.273,264.789z"/>
</g>
<g style="opacity:0.2;">
	<path d="M127.266,264.789c0,14.091-10.451,25.636-23.996,27.588c1.32,0.195,2.633,0.406,4,0.406
		c15.458,0,27.994-12.536,27.994-27.994c0-15.458-12.536-27.995-27.994-27.995c-1.367,0-2.68,0.211-4,0.406
		C116.815,239.152,127.266,250.697,127.266,264.789z"/>
</g>
<g style="opacity:0.3;">
	<path style="fill:#FFFFFF;" d="M10.748,360.232v-7.998c0-104.239,31.791-56.326,8.194-230.482
		c-2.734-0.492-5.397-0.914-8.194-1.477C34.744,296.244,2.75,247.69,2.75,352.234v7.998c2.702,0,5.327,0,7.998,0.008
		C10.748,360.24,10.748,360.232,10.748,360.232z"/>
</g>
<g style="opacity:0.2;">
	<path d="M498.66,320.239v32.019c2.961-2.516,5.632-5.18,7.999-8.022v-31.994C504.339,315.037,501.699,317.678,498.66,320.239z"/>
</g>
<g>
	<path style="fill:#3A3847;" d="M507.909,347.937c-2.211,0-3.999-1.789-3.999-3.999v-31.994c0-2.211,1.788-3.999,3.999-3.999
		c2.21,0,3.999,1.788,3.999,3.999v31.994C511.908,346.148,510.119,347.937,507.909,347.937z"/>
	<path style="fill:#3A3847;" d="M4,387.931c-2.211,0-4-1.789-4-3.999v-23.996c0-2.211,1.789-3.999,4-3.999
		c2.21,0,3.999,1.788,3.999,3.999v23.996C7.999,386.142,6.21,387.931,4,387.931z"/>
	<path style="fill:#3A3847;" d="M72.831,395.952c-19.474,0-39.72-0.008-60.833-0.023c-2.21,0-3.999-1.796-3.999-3.999
		c0-2.211,1.789-3.999,3.999-3.999l0,0c330.237,0.25,453.793,0.289,492.841-46.554c1.422-1.688,3.944-1.914,5.632-0.508
		c1.695,1.413,1.922,3.937,0.508,5.631C472.165,393.07,360.396,395.952,72.831,395.952z"/>
	<path style="fill:#3A3847;" d="M78.15,379.947c-18.646,0-38.009-0.008-58.153-0.023c-2.211,0-4-1.797-4-3.999
		c0-2.21,1.789-3.999,4-3.999l0,0c286.878,0.203,417.847,0.266,469.743-33.369c1.844-1.18,4.327-0.688,5.53,1.188
		c1.195,1.851,0.672,4.327-1.188,5.53C443.967,377.753,326.519,379.947,78.15,379.947z"/>
	<path style="fill:#3A3847;" d="M66.379,363.966c-19.965,0-40.711-0.016-62.379-0.031c-2.211,0-4-1.796-4-3.999
		c0-2.211,1.789-3.999,4-3.999l0,0c326.559,0.188,461.775,0.297,500.839-46.57c1.422-1.694,3.944-1.921,5.632-0.507
		c1.695,1.413,1.922,3.937,0.508,5.631C472.173,361.053,358.576,363.966,66.379,363.966z"/>
	<path style="fill:#3A3847;" d="M11.998,395.929C5.382,395.929,0,390.547,0,383.932c0-2.211,1.789-4,4-4c2.21,0,3.999,1.789,3.999,4
		c0,2.202,1.797,3.999,3.999,3.999c2.211,0,3.999,1.788,3.999,3.999S14.209,395.929,11.998,395.929z"/>
	<path style="fill:#3A3847;" d="M4,355.936c-2.211,0-4-1.789-4-3.999c0-40.938,4.772-58.49,9.39-75.455
		c7.115-26.168,13.263-48.765-1.352-155.965c-0.305-2.187,1.234-4.202,3.421-4.499c2.148-0.406,4.202,1.227,4.499,3.421
		c14.842,108.808,8.499,132.132,1.148,159.143c-4.476,16.458-9.107,33.486-9.107,73.354C7.999,354.147,6.21,355.936,4,355.936z"/>
	<path style="fill:#3A3847;" d="M89.172,131.945c-21.582,0-47.796-2.015-77.955-8.045c-2.171-0.429-3.577-2.539-3.14-4.702
		c0.438-2.179,2.616-3.57,4.702-3.14c86.789,17.356,141.428,0.289,141.967,0.117c2.093-0.688,4.351,0.477,5.03,2.578
		s-0.469,4.351-2.57,5.03C155.691,124.275,131.266,131.945,89.172,131.945z"/>
	<path style="fill:#3A3847;" d="M499.91,307.945c-2.211,0-3.999-1.789-3.999-4c0-17.254-30.831-22.574-73.511-29.939
		c-78.915-13.615-198.167-34.189-269.842-151.949c-1.148-1.883-0.555-4.343,1.336-5.491c1.867-1.156,4.343-0.57,5.491,1.336
		c69.792,114.651,186.888,134.851,264.374,148.223c46.531,8.03,80.15,13.826,80.15,37.821
		C503.91,306.156,502.121,307.945,499.91,307.945z"/>
	<path style="fill:#3A3847;" d="M419.62,339.939c-1.961,0-3.679-1.453-3.952-3.453l-7.702-55.989
		c-0.305-2.188,1.227-4.21,3.413-4.507c2.117-0.289,4.211,1.218,4.508,3.413l7.701,55.989c0.305,2.188-1.227,4.211-3.413,4.508
		C419.987,339.924,419.808,339.939,419.62,339.939z"/>
	<path style="fill:#3A3847;" d="M355.647,290.026c-1.781,0-3.546-0.398-5.194-1.195c-5.96-2.866-8.468-10.053-5.608-16.021
		c0.976-2,3.358-2.805,5.343-1.875c1.992,0.961,2.827,3.352,1.875,5.344c-0.961,1.991-0.125,4.389,1.858,5.35
		c0.977,0.469,2.055,0.516,3.046,0.172c1.016-0.359,1.828-1.086,2.289-2.054c0.969-1.992,3.352-2.812,5.343-1.875
		c1.992,0.961,2.827,3.351,1.875,5.343c-1.398,2.891-3.827,5.069-6.858,6.132C358.318,289.8,356.975,290.026,355.647,290.026z"/>
	<path style="fill:#3A3847;" d="M348.453,278.544c-0.586,0-1.18-0.125-1.734-0.398c-1.991-0.953-2.827-3.343-1.866-5.335
		l3.147-6.538c0.953-1.999,3.352-2.835,5.335-1.866c1.992,0.953,2.828,3.343,1.867,5.335l-3.147,6.538
		C351.367,277.708,349.937,278.544,348.453,278.544z"/>
	<path style="fill:#3A3847;" d="M362.865,285.48c-0.586,0-1.18-0.125-1.734-0.398c-1.992-0.961-2.828-3.352-1.867-5.335l4.694-9.733
		c0.961-1.991,3.374-2.835,5.335-1.866c1.992,0.961,2.828,3.351,1.867,5.335l-4.694,9.732
		C365.778,284.644,364.349,285.48,362.865,285.48z"/>
	<path style="fill:#3A3847;" d="M315.795,279.888c-2.273,0-4.499-0.648-6.46-1.906c-5.562-3.593-7.178-11.029-3.608-16.583
		c1.195-1.859,3.671-2.391,5.53-1.203c1.858,1.195,2.397,3.672,1.203,5.531c-1.195,1.851-0.648,4.326,1.21,5.529
		c0.875,0.57,1.938,0.773,3,0.539c1.047-0.234,1.938-0.852,2.516-1.75c1.202-1.866,3.687-2.397,5.521-1.21
		c1.859,1.187,2.406,3.663,1.211,5.522c-1.727,2.702-4.405,4.569-7.545,5.249C317.514,279.794,316.654,279.888,315.795,279.888z"/>
	<path style="fill:#3A3847;" d="M309.093,267.561c-0.741,0-1.491-0.203-2.163-0.633c-1.859-1.195-2.398-3.671-1.203-5.53
		l4.304-6.694c1.195-1.859,3.671-2.39,5.53-1.203c1.859,1.195,2.398,3.671,1.203,5.529l-4.304,6.695
		C311.694,266.913,310.405,267.561,309.093,267.561z"/>
	<path style="fill:#3A3847;" d="M322.552,276.201c-0.742,0-1.492-0.203-2.164-0.633c-1.858-1.195-2.397-3.672-1.202-5.531
		l6.623-10.311c1.203-1.858,3.672-2.397,5.53-1.202c1.859,1.194,2.398,3.671,1.203,5.53l-6.624,10.311
		C325.152,275.553,323.864,276.201,322.552,276.201z"/>
	<path style="fill:#3A3847;" d="M279.442,267.96c-2.273,0-4.499-0.648-6.452-1.906c-5.562-3.593-7.179-11.029-3.608-16.59
		c1.194-1.859,3.663-2.39,5.53-1.203c1.858,1.195,2.397,3.671,1.203,5.53c-1.195,1.851-0.648,4.335,1.21,5.538
		c0.891,0.57,1.953,0.758,2.992,0.531c1.046-0.227,1.944-0.852,2.522-1.749c1.203-1.867,3.68-2.406,5.522-1.211
		c1.859,1.188,2.406,3.663,1.211,5.522c-1.734,2.703-4.413,4.569-7.554,5.257C281.16,267.866,280.302,267.96,279.442,267.96z"/>
	<path style="fill:#3A3847;" d="M272.748,255.626c-0.742,0-1.492-0.203-2.164-0.633c-1.858-1.195-2.397-3.671-1.202-5.53l5.53-8.608
		c1.195-1.859,3.671-2.39,5.53-1.203c1.858,1.195,2.397,3.671,1.202,5.53l-5.529,8.608
		C275.35,254.977,274.06,255.626,272.748,255.626z"/>
	<path style="fill:#3A3847;" d="M286.207,264.266c-0.742,0-1.492-0.203-2.164-0.633c-1.859-1.195-2.398-3.672-1.203-5.53
		l6.983-10.873c1.203-1.859,3.671-2.391,5.53-1.203c1.859,1.195,2.398,3.671,1.203,5.53l-6.983,10.873
		C288.808,263.617,287.518,264.266,286.207,264.266z"/>
	<path style="fill:#3A3847;" d="M244.534,250.236c-2.632,0-5.187-0.867-7.303-2.507c-5.234-4.054-6.202-11.607-2.156-16.841
		c1.359-1.75,3.874-2.062,5.608-0.719c1.75,1.352,2.069,3.858,0.719,5.608c-1.352,1.75-1.023,4.272,0.727,5.624
		c0.835,0.656,1.897,0.953,2.944,0.797c1.062-0.141,2-0.68,2.648-1.523c1.351-1.75,3.858-2.07,5.608-0.734
		c1.749,1.344,2.077,3.859,0.733,5.608c-1.952,2.539-4.78,4.171-7.959,4.577C245.581,250.197,245.058,250.236,244.534,250.236z"/>
	<path style="fill:#3A3847;" d="M238.238,237.332c-0.859,0-1.718-0.273-2.444-0.835c-1.75-1.352-2.07-3.859-0.719-5.608l6.249-8.093
		c1.359-1.757,3.874-2.054,5.608-0.718c1.749,1.351,2.069,3.859,0.719,5.608l-6.249,8.092
		C240.613,236.802,239.433,237.332,238.238,237.332z"/>
	<path style="fill:#3A3847;" d="M250.892,247.112c-0.859,0-1.719-0.273-2.445-0.836c-1.749-1.352-2.069-3.858-0.718-5.608
		l7.623-9.873c1.359-1.75,3.882-2.062,5.608-0.719c1.75,1.352,2.07,3.858,0.719,5.608l-7.624,9.873
		C253.267,246.581,252.088,247.112,250.892,247.112z"/>
	<path style="fill:#3A3847;" d="M209.424,227.272c-0.164,0-0.328-0.008-0.5-0.008c-3.203-0.133-6.163-1.507-8.327-3.867
		c-4.476-4.866-4.163-12.474,0.688-16.95c1.625-1.492,4.147-1.398,5.647,0.227s1.398,4.148-0.227,5.647
		c-1.617,1.5-1.719,4.039-0.219,5.671c0.719,0.781,1.703,1.234,2.766,1.273c1.062,0.109,2.085-0.336,2.866-1.055
		c1.625-1.492,4.147-1.398,5.655,0.219c1.5,1.625,1.398,4.155-0.219,5.655C215.321,226.147,212.454,227.272,209.424,227.272z"/>
	<path style="fill:#3A3847;" d="M203.995,213.384c-1.078,0-2.156-0.438-2.945-1.289c-1.492-1.625-1.391-4.155,0.234-5.655
		l7.741-7.131c1.624-1.477,4.163-1.375,5.655,0.234c1.491,1.625,1.39,4.156-0.234,5.655l-7.741,7.131
		C205.939,213.032,204.963,213.384,203.995,213.384z"/>
	<path style="fill:#3A3847;" d="M214.837,225.147c-1.078,0-2.156-0.438-2.945-1.289c-1.492-1.625-1.391-4.155,0.234-5.655
		l9.811-9.029c1.641-1.484,4.156-1.383,5.655,0.234c1.492,1.625,1.391,4.155-0.234,5.655l-9.811,9.029
		C216.773,224.796,215.805,225.147,214.837,225.147z"/>
	<path style="fill:#3A3847;" d="M179.983,198.402c-0.938,0-1.883-0.109-2.819-0.336c-3.117-0.742-5.749-2.656-7.421-5.39
		c-3.452-5.647-1.672-13.045,3.96-16.505c1.883-1.141,4.343-0.562,5.507,1.32c1.148,1.89,0.562,4.351-1.32,5.507
		c-1.882,1.148-2.476,3.616-1.319,5.507c0.555,0.906,1.421,1.538,2.46,1.788c1.039,0.227,2.109,0.07,3.031-0.484
		c1.89-1.164,4.351-0.57,5.499,1.312c1.155,1.883,0.57,4.343-1.312,5.499C184.334,197.801,182.179,198.402,179.983,198.402z"/>
	<path style="fill:#3A3847;" d="M175.797,183.584c-1.344,0-2.656-0.679-3.406-1.906c-1.155-1.883-0.569-4.343,1.312-5.499
		l6.999-4.296c1.891-1.156,4.351-0.562,5.499,1.312c1.156,1.882,0.57,4.343-1.312,5.499l-6.999,4.296
		C177.234,183.397,176.516,183.584,175.797,183.584z"/>
	<path style="fill:#3A3847;" d="M184.154,197.215c-1.343,0-2.655-0.68-3.413-1.914c-1.148-1.882-0.555-4.343,1.328-5.499
		l10.201-6.241c1.866-1.132,4.335-0.562,5.499,1.328c1.148,1.883,0.555,4.343-1.328,5.499l-10.201,6.241
		C185.592,197.027,184.873,197.215,184.154,197.215z"/>
	<path style="fill:#3A3847;" d="M155.871,165.26c-1.945,0-3.883-0.484-5.647-1.43c-2.836-1.523-4.906-4.046-5.827-7.116
		c-1.906-6.334,1.694-13.044,8.029-14.958c2.094-0.64,4.343,0.562,4.983,2.672c0.641,2.117-0.555,4.343-2.671,4.983
		c-2.117,0.641-3.32,2.882-2.688,4.999c0.312,1.016,1,1.859,1.945,2.367c0.945,0.5,2.023,0.633,3.038,0.305
		c2.133-0.633,4.352,0.554,4.991,2.664c0.641,2.117-0.554,4.351-2.663,4.991C158.214,165.08,157.042,165.26,155.871,165.26z"/>
	<path style="fill:#3A3847;" d="M153.582,149.583c-1.719,0-3.312-1.117-3.827-2.852c-0.641-2.116,0.562-4.343,2.679-4.976
		l4.062-1.218c2.094-0.641,4.352,0.555,4.977,2.679c0.64,2.117-0.562,4.343-2.68,4.976l-4.062,1.219
		C154.348,149.528,153.965,149.583,153.582,149.583z"/>
	<path style="fill:#3A3847;" d="M158.198,164.908c-1.719,0-3.304-1.117-3.827-2.843c-0.641-2.117,0.555-4.343,2.671-4.983
		l9.679-2.921c2.101-0.648,4.343,0.562,4.983,2.671c0.64,2.117-0.555,4.343-2.672,4.983l-9.678,2.921
		C158.972,164.853,158.581,164.908,158.198,164.908z"/>
	<path style="fill:#3A3847;" d="M85.009,284.262c-1.258,0-2.5-0.594-3.273-1.703c-3.765-5.374-5.749-11.701-5.749-18.293
		c0-14.045,9.397-26.652,22.84-30.675c2.141-0.617,4.343,0.578,4.983,2.688c0.633,2.117-0.578,4.351-2.687,4.983
		c-10.092,3.007-17.138,12.466-17.138,23.004c0,4.944,1.484,9.686,4.296,13.7c1.273,1.812,0.828,4.304-0.977,5.569
		C86.601,284.027,85.805,284.262,85.009,284.262z"/>
	<path style="fill:#3A3847;" d="M115.972,295.103c-1.727,0-3.319-1.125-3.835-2.859c-0.625-2.116,0.578-4.343,2.694-4.975
		c10.092-3,17.146-12.459,17.146-23.004c0-4.812-1.422-9.444-4.101-13.412c-1.242-1.828-0.758-4.319,1.07-5.554
		c1.819-1.242,4.312-0.758,5.553,1.07c3.586,5.296,5.476,11.482,5.476,17.896c0,14.06-9.404,26.675-22.862,30.674
		C116.729,295.049,116.347,295.103,115.972,295.103z"/>
	<path style="fill:#3A3847;" d="M115.667,275.951c-1.023,0-2.047-0.391-2.828-1.172l-15.685-15.685
		c-1.562-1.562-1.562-4.093,0-5.654c1.562-1.562,4.094-1.562,5.655,0l15.685,15.685c1.562,1.562,1.562,4.093,0,5.655
		C117.714,275.56,116.69,275.951,115.667,275.951z"/>
	<path style="fill:#3A3847;" d="M99.982,260.266c-1.023,0-2.047-0.391-2.828-1.172c-1.562-1.562-1.562-4.093,0-5.654l31.994-31.995
		c1.562-1.562,4.094-1.562,5.655,0c1.562,1.562,1.562,4.093,0,5.655l-31.994,31.994C102.028,259.875,101.006,260.266,99.982,260.266
		z"/>
	<path style="fill:#3A3847;" d="M83.673,307.945c-1.023,0-2.047-0.391-2.828-1.172c-1.562-1.562-1.562-4.094,0-5.655l31.994-31.994
		c1.562-1.562,4.094-1.562,5.655,0c1.562,1.562,1.562,4.093,0,5.655L86.5,306.773C85.719,307.555,84.696,307.945,83.673,307.945z"/>
</g>
<g>
</g>
<g>
</g>
<g>
</g>
<g>
</g>
<g>
</g>
<g>
</g>
<g>
</g>
<g>
</g>
<g>
</g>
<g>
</g>
<g>
</g>
<g>
</g>
<g>
</g>
<g>
</g>
<g>
</g>
</svg>
